<?xml version="1.0" encoding="UTF-8"?>
<svg width="512px" height="512px" viewBox="0 0 512 512" version="1.1" xmlns="http://www.w3.org/2000/svg" xmlns:xlink="http://www.w3.org/1999/xlink">
    <!-- Generator: Sketch 43.2 (39069) - http://www.bohemiancoding.com/sketch -->
    <title>clipboard</title>
    <desc>Created with Sketch.</desc>
    <defs></defs>
    <g id="Page-1" stroke="none" stroke-width="1" fill="none" fill-rule="evenodd">
        <g id="clipboard" fill-rule="nonzero" fill="#4A4A4A">
            <path d="M302.055,386.417 C292.254,380.758 281.695,377.789 271.101,376.879 C267.433,388.046 265.506,394.957 265.246,395.526 L257.125,435.223 C255.827,441.543 258.722,447.982 264.315,451.211 C269.895,454.433 276.932,453.726 281.755,449.442 L312.422,422.233 C312.783,421.729 317.738,416.646 325.491,407.963 C319.448,399.444 311.679,391.973 302.055,386.417 Z" id="Shape"></path>
            <path d="M497.011,48.744 C482.691,40.477 464.306,45.403 456.039,59.723 L426.046,111.673 L477.996,141.666 L507.989,89.716 C516.257,75.396 511.33,57.011 497.011,48.744 Z" id="Shape"></path>
            <path d="M386.904,119.497 L391.913,110.822 L391.913,107.035 C391.913,82.188 371.771,62.045 346.923,62.045 L316.93,62.045 C316.93,95.129 290.027,122.032 256.943,122.032 L135.969,122.032 C102.885,122.032 75.982,95.129 75.982,62.045 L44.99,62.045 C20.142,62.045 0,82.187 0,107.035 L0,466.954 C0,491.8 20.142,511.943 44.99,511.943 L346.922,511.943 C371.769,511.943 391.912,491.801 391.912,466.953 L391.912,373.145 C335.842,449.695 298.654,474.5 301.654,471.874 C287.19,484.76 266.019,486.849 249.298,477.161 C232.544,467.51 223.845,448.237 227.726,429.228 C228.676,426.223 255.691,257.244 386.904,119.497 Z M146.573,426.357 C152.431,432.215 152.431,441.706 146.573,447.563 C140.715,453.421 131.224,453.421 125.367,447.563 L105.976,428.172 L86.585,447.563 C80.727,453.421 71.236,453.421 65.379,447.563 C59.521,441.705 59.521,432.214 65.379,426.357 L84.77,406.966 L65.38,387.575 C59.522,381.717 59.522,372.226 65.38,366.369 C71.238,360.511 80.729,360.511 86.586,366.369 L105.976,385.76 L125.367,366.369 C131.225,360.511 140.716,360.511 146.573,366.369 C152.431,372.227 152.431,381.718 146.573,387.575 L127.182,406.966 L146.573,426.357 Z M161.57,282.599 L116.58,327.589 C113.651,330.518 109.814,331.983 105.977,331.983 C102.141,331.983 98.303,330.518 95.374,327.589 L65.381,297.596 C59.521,291.738 59.521,282.248 65.38,276.39 C71.238,270.532 80.729,270.532 86.586,276.39 L105.976,295.781 L140.363,261.394 C146.221,255.536 155.712,255.536 161.569,261.394 C167.427,267.251 167.427,276.742 161.57,282.599 Z M161.57,192.62 L116.58,237.61 C113.651,240.539 109.814,242.004 105.977,242.004 C102.141,242.004 98.303,240.539 95.374,237.61 L65.381,207.617 C59.521,201.759 59.521,192.269 65.38,186.411 C71.238,180.553 80.729,180.553 86.586,186.411 L105.976,205.802 L140.363,171.415 C146.221,165.557 155.712,165.557 161.569,171.415 C167.426,177.273 167.427,186.762 161.57,192.62 Z" id="Shape"></path>
            <path d="M484.421,180.008 L411.049,137.647 C341.417,209.694 301.33,295.787 281.384,348.05 C293.607,350.024 305.708,353.894 317.05,360.441 C328.222,366.893 337.478,375.304 345.235,384.721 C363.875,361.816 387.876,329.164 410.459,289.672 C410.496,290.049 410.36,290.397 410.406,290.774 L416.53,341.677 C417.506,349.889 424.966,355.762 433.205,354.77 C441.432,353.789 447.299,346.32 446.298,338.097 L440.174,287.194 C439.343,280.256 443.343,273.737 449.878,271.321 L477.461,261.186 C494.022,255.089 505.238,240.377 506.746,222.797 C508.247,205.229 499.691,188.824 484.421,180.008 Z M476.868,220.241 C476.662,222.472 475.404,229.983 467.111,233.04 L439.528,243.177 C436.92,244.138 434.845,245.824 432.524,247.193 C440.125,231.126 447.21,214.362 453.461,196.768 L469.424,205.984 C477.084,210.408 477.055,218.016 476.868,220.241 Z" id="Shape"></path>
            <path d="M256.942,31.051 L239.192,31.051 C232.995,13.618 215.516,0.058 195.956,0.058 C176.396,0.058 159.916,13.618 153.719,31.051 L135.969,31.051 C119.404,31.051 105.976,45.479 105.976,62.044 C105.976,78.609 119.404,92.037 135.969,92.037 L256.942,92.037 C273.507,92.037 286.935,78.609 286.935,62.044 C286.935,45.479 273.508,31.051 256.942,31.051 Z" id="Shape"></path>
        </g>
    </g>
</svg>