<?xml version="1.0" encoding="UTF-8"?>
<svg width="361px" height="443px" viewBox="0 0 361 443" version="1.1" xmlns="http://www.w3.org/2000/svg" xmlns:xlink="http://www.w3.org/1999/xlink">
    <!-- Generator: Sketch 43.2 (39069) - http://www.bohemiancoding.com/sketch -->
    <title>delete</title>
    <desc>Created with Sketch.</desc>
    <defs></defs>
    <g id="Page-1" stroke="none" stroke-width="1" fill="none" fill-rule="evenodd">
        <g id="delete" fill-rule="nonzero" fill="#9B9B9B">
            <path d="M280.785,38 L197.401,38 L197.401,0 L84.169,0 L84.169,38 L0.785,38 L0.785,98 L280.785,98 L280.785,38 Z M114.169,30 L167.401,30 L167.401,38 L114.169,38 L114.169,30 Z" id="Shape"></path>
            <path d="M254.142,214.31 L259.802,128 L21.769,128 L40.785,418 L154.957,418 C140.096,396.933 131.355,371.254 131.355,343.57 C131.355,274.43 185.849,217.779 254.142,214.31 Z" id="Shape"></path>
            <path d="M260.785,244.141 C205.959,244.141 161.355,288.745 161.355,343.57 C161.355,398.395 205.959,443 260.785,443 C315.611,443 360.215,398.396 360.215,343.57 C360.215,288.744 315.611,244.141 260.785,244.141 Z M314.961,376.533 L293.748,397.746 L260.785,364.783 L227.822,397.746 L206.609,376.533 L239.572,343.57 L206.609,310.607 L227.822,289.394 L260.785,322.357 L293.748,289.394 L314.961,310.607 L281.998,343.57 L314.961,376.533 Z" id="Shape"></path>
        </g>
    </g>
</svg>