<?xml version="1.0" encoding="UTF-8"?>
<svg width="33px" height="33px" viewBox="0 0 33 33" version="1.1" xmlns="http://www.w3.org/2000/svg" xmlns:xlink="http://www.w3.org/1999/xlink">
    <!-- Generator: Sketch 43.2 (39069) - http://www.bohemiancoding.com/sketch -->
    <title>Microphone</title>
    <desc>Created with Sketch.</desc>
    <defs></defs>
    <g id="Page-1" stroke="none" stroke-width="1" fill="none" fill-rule="evenodd">
        <g id="Desktop-HD" transform="translate(-1345.000000, -112.000000)">
            <g id="Group-2-Copy" transform="translate(1346.000000, 113.000000)">
                <circle id="Oval" stroke="#4A4A4A" stroke-width="2" cx="15.5" cy="15.5" r="15.5"></circle>
                <path d="M20.7840909,15.5 C20.5896364,15.5 20.4318182,15.6574659 20.4318182,15.8522727 L20.4318182,17.9659091 C20.4318182,20.6854545 18.2195455,22.8977273 15.5,22.8977273 C12.7804545,22.8977273 10.5681818,20.6854545 10.5681818,17.9659091 L10.5681818,15.8522727 C10.5681818,15.6574659 10.4103636,15.5 10.2159091,15.5 C10.0214545,15.5 9.86363636,15.6574659 9.86363636,15.8522727 L9.86363636,17.9659091 C9.86363636,20.9549432 12.2041364,23.401125 15.1477273,23.5843068 L15.1477273,25.3636364 L13.3863636,25.3636364 C13.1919091,25.3636364 13.0340909,25.5211023 13.0340909,25.7159091 C13.0340909,25.9107159 13.1919091,26.0681818 13.3863636,26.0681818 L17.6136364,26.0681818 C17.8080909,26.0681818 17.9659091,25.9107159 17.9659091,25.7159091 C17.9659091,25.5211023 17.8080909,25.3636364 17.6136364,25.3636364 L15.8522727,25.3636364 L15.8522727,23.5843068 C18.7958636,23.401125 21.1363636,20.9545909 21.1363636,17.9659091 L21.1363636,15.8522727 C21.1363636,15.6574659 20.9785455,15.5 20.7840909,15.5 Z" id="Shape" fill="#4A4A4A" fill-rule="nonzero"></path>
                <path d="M15.1477273,21.8409091 C17.2842614,21.8409091 19.0227273,20.1024432 19.0227273,17.9659091 L19.0227273,9.51136364 C19.0227273,7.37482955 17.2842614,5.63636364 15.1477273,5.63636364 C13.0111932,5.63636364 11.2727273,7.37482955 11.2727273,9.51136364 L11.2727273,17.9659091 C11.2727273,20.1024432 13.0111932,21.8409091 15.1477273,21.8409091 Z" id="Shape" fill="#4A4A4A" fill-rule="nonzero"></path>
            </g>
        </g>
    </g>
</svg>