<?xml version="1.0" encoding="UTF-8"?>
<svg width="357px" height="343px" viewBox="0 0 357 343" version="1.1" xmlns="http://www.w3.org/2000/svg" xmlns:xlink="http://www.w3.org/1999/xlink">
    <!-- Generator: Sketch 43.2 (39069) - http://www.bohemiancoding.com/sketch -->
    <title>speech-bubble-with-text-lines</title>
    <desc>Created with Sketch.</desc>
    <defs></defs>
    <g id="Page-1" stroke="none" stroke-width="1" fill="none" fill-rule="evenodd">
        <g id="speech-bubble-with-text-lines" fill-rule="nonzero" fill="#4A4A4A">
            <path d="M293.984,0.23 L62.5,0.23 C28.037,0.23 0,28.268 0,62.731 L0,205.511 C0,239.974 28.037,268.011 62.5,268.011 L209.943,268.012 L280.524,338.592 C282.916,340.985 286.112,342.254 289.366,342.254 C290.976,342.254 292.6,341.942 294.146,341.301 C298.817,339.367 301.863,334.811 301.863,329.754 L301.863,267.517 C332.622,263.632 356.484,237.306 356.484,205.511 L356.484,62.731 C356.484,28.268 328.447,0.23 293.984,0.23 Z M331.484,205.512 C331.484,226.19 314.662,243.012 293.984,243.012 L289.363,243.012 C282.46,243.012 276.863,248.61 276.863,255.512 L276.863,299.576 L223.96,246.673 C221.616,244.328 218.438,243.012 215.121,243.012 L62.5,243.012 C41.822,243.012 25,226.19 25,205.512 L25,62.732 C25,42.054 41.822,25.232 62.5,25.232 L293.984,25.232 C314.662,25.232 331.484,42.054 331.484,62.732 L331.484,205.512 L331.484,205.512 Z" id="Shape"></path>
            <path d="M270.242,88.743 L86.242,88.743 C79.339,88.743 73.742,94.339 73.742,101.243 C73.742,108.146 79.339,113.743 86.242,113.743 L270.242,113.743 C277.145,113.743 282.742,108.146 282.742,101.243 C282.742,94.339 277.146,88.743 270.242,88.743 Z" id="Shape"></path>
            <path d="M270.242,158.743 L86.242,158.743 C79.339,158.743 73.742,164.339 73.742,171.243 C73.742,178.147 79.339,183.743 86.242,183.743 L270.242,183.743 C277.145,183.743 282.742,178.146 282.742,171.243 C282.742,164.34 277.146,158.743 270.242,158.743 Z" id="Shape"></path>
        </g>
    </g>
</svg>